<?xml version="1.0" encoding="UTF-8"?>
<svg id="_圖層_1" data-name="圖層 1" xmlns="http://www.w3.org/2000/svg" viewBox="0 0 433.24 433.24">
  <defs>
    <style>
      .cls-1 {
        fill: #ff0;
      }

      .cls-1, .cls-2, .cls-3 {
        stroke: #fff;
        stroke-miterlimit: 10;
        stroke-width: 3px;
      }

      .cls-2 {
        fill: #ed1c24;
      }

      .cls-3 {
        fill: #00b7e2;
      }
    </style>
  </defs>
  <circle cx="216.62" cy="216.62" r="180"/>
  <circle class="cls-3" cx="216.62" cy="216.62" r="150"/>
  <circle class="cls-2" cx="216.62" cy="216.62" r="100"/>
  <circle class="cls-1" cx="216.62" cy="216.62" r="50"/>
  <polygon points="247.12 60 187.12 60 193.87 0 240.38 0 247.12 60"/>
  <polygon points="164.72 65.73 112.76 95.73 88.6 40.4 128.88 17.14 164.72 65.73"/>
  <polygon points="96.23 111.9 66.23 163.86 17.64 128.02 40.9 87.74 96.23 111.9"/>
  <polygon points="60 186.12 60 246.12 0 239.38 0 192.87 60 186.12"/>
  <polygon points="65.73 268.52 95.73 320.48 40.4 344.64 17.14 304.36 65.73 268.52"/>
  <polygon points="111.9 337.01 163.86 367.01 128.02 415.6 87.74 392.34 111.9 337.01"/>
  <polygon points="186.12 373.24 246.12 373.24 239.38 433.24 192.87 433.24 186.12 373.24"/>
  <polygon points="268.52 367.51 320.48 337.51 344.64 392.84 304.36 416.1 268.52 367.51"/>
  <polygon points="337.01 321.35 367.01 269.39 415.6 305.23 392.34 345.51 337.01 321.35"/>
  <polygon points="373.24 247.12 373.24 187.12 433.24 193.87 433.24 240.38 373.24 247.12"/>
  <polygon points="367.51 164.72 337.51 112.76 392.84 88.6 416.1 128.88 367.51 164.72"/>
  <polygon points="321.35 96.23 269.39 66.23 305.23 17.64 345.51 40.9 321.35 96.23"/>
</svg>